<mxfile host="Electron" modified="2025-07-28T03:51:05.267Z" agent="Mozilla/5.0 (Windows NT 10.0; Win64; x64) AppleWebKit/537.36 (KHTML, like Gecko) draw.io/23.1.5 Chrome/120.0.6099.109 Electron/28.1.0 Safari/537.36" etag="-FsBFtTHiTzEt24xgctX" version="23.1.5" type="device">
  <diagram name="第 1 页" id="Td3E_pn6UySzwi48uszh">
    <mxGraphModel dx="1036" dy="614" grid="1" gridSize="10" guides="1" tooltips="1" connect="1" arrows="1" fold="1" page="1" pageScale="1" pageWidth="827" pageHeight="1169" math="0" shadow="0">
      <root>
        <mxCell id="0" />
        <mxCell id="1" parent="0" />
        <mxCell id="AO4uGi3OFT1quL-vgq5e-7" style="edgeStyle=orthogonalEdgeStyle;rounded=0;orthogonalLoop=1;jettySize=auto;html=1;exitX=1;exitY=0.25;exitDx=0;exitDy=0;entryX=0;entryY=0.25;entryDx=0;entryDy=0;" edge="1" parent="1" source="AO4uGi3OFT1quL-vgq5e-1" target="AO4uGi3OFT1quL-vgq5e-6">
          <mxGeometry relative="1" as="geometry" />
        </mxCell>
        <mxCell id="AO4uGi3OFT1quL-vgq5e-31" value="load" style="edgeLabel;html=1;align=center;verticalAlign=middle;resizable=0;points=[];" vertex="1" connectable="0" parent="AO4uGi3OFT1quL-vgq5e-7">
          <mxGeometry x="0.0509" y="1" relative="1" as="geometry">
            <mxPoint as="offset" />
          </mxGeometry>
        </mxCell>
        <mxCell id="AO4uGi3OFT1quL-vgq5e-47" style="edgeStyle=orthogonalEdgeStyle;rounded=0;orthogonalLoop=1;jettySize=auto;html=1;exitX=0.75;exitY=1;exitDx=0;exitDy=0;entryX=0.75;entryY=0;entryDx=0;entryDy=0;" edge="1" parent="1" source="AO4uGi3OFT1quL-vgq5e-1" target="AO4uGi3OFT1quL-vgq5e-16">
          <mxGeometry relative="1" as="geometry" />
        </mxCell>
        <mxCell id="AO4uGi3OFT1quL-vgq5e-48" value="toggle" style="edgeLabel;html=1;align=center;verticalAlign=middle;resizable=0;points=[];" vertex="1" connectable="0" parent="AO4uGi3OFT1quL-vgq5e-47">
          <mxGeometry x="-0.07" y="-1" relative="1" as="geometry">
            <mxPoint as="offset" />
          </mxGeometry>
        </mxCell>
        <mxCell id="AO4uGi3OFT1quL-vgq5e-1" value="tree_mode: true&lt;br&gt;child: empty" style="rounded=1;whiteSpace=wrap;html=1;" vertex="1" parent="1">
          <mxGeometry x="80" y="200" width="120" height="40" as="geometry" />
        </mxCell>
        <mxCell id="AO4uGi3OFT1quL-vgq5e-12" style="edgeStyle=orthogonalEdgeStyle;rounded=0;orthogonalLoop=1;jettySize=auto;html=1;exitX=0;exitY=0.75;exitDx=0;exitDy=0;entryX=1;entryY=0.75;entryDx=0;entryDy=0;" edge="1" parent="1" source="AO4uGi3OFT1quL-vgq5e-6" target="AO4uGi3OFT1quL-vgq5e-1">
          <mxGeometry relative="1" as="geometry" />
        </mxCell>
        <mxCell id="AO4uGi3OFT1quL-vgq5e-30" value="unload&lt;br&gt;(not implemented)" style="edgeLabel;html=1;align=center;verticalAlign=middle;resizable=0;points=[];" vertex="1" connectable="0" parent="AO4uGi3OFT1quL-vgq5e-12">
          <mxGeometry x="-0.0255" y="-1" relative="1" as="geometry">
            <mxPoint y="21" as="offset" />
          </mxGeometry>
        </mxCell>
        <mxCell id="AO4uGi3OFT1quL-vgq5e-41" style="edgeStyle=orthogonalEdgeStyle;rounded=0;orthogonalLoop=1;jettySize=auto;html=1;exitX=0.75;exitY=1;exitDx=0;exitDy=0;entryX=0.75;entryY=0;entryDx=0;entryDy=0;" edge="1" parent="1" source="AO4uGi3OFT1quL-vgq5e-6" target="AO4uGi3OFT1quL-vgq5e-9">
          <mxGeometry relative="1" as="geometry" />
        </mxCell>
        <mxCell id="AO4uGi3OFT1quL-vgq5e-42" value="toggle" style="edgeLabel;html=1;align=center;verticalAlign=middle;resizable=0;points=[];" vertex="1" connectable="0" parent="AO4uGi3OFT1quL-vgq5e-41">
          <mxGeometry x="-0.1033" y="-2" relative="1" as="geometry">
            <mxPoint as="offset" />
          </mxGeometry>
        </mxCell>
        <mxCell id="AO4uGi3OFT1quL-vgq5e-6" value="tree_mode: true&lt;br&gt;child: tree view" style="rounded=1;whiteSpace=wrap;html=1;" vertex="1" parent="1">
          <mxGeometry x="320" y="200" width="120" height="40" as="geometry" />
        </mxCell>
        <mxCell id="AO4uGi3OFT1quL-vgq5e-37" style="edgeStyle=orthogonalEdgeStyle;rounded=0;orthogonalLoop=1;jettySize=auto;html=1;exitX=0;exitY=0.75;exitDx=0;exitDy=0;entryX=1;entryY=0.75;entryDx=0;entryDy=0;" edge="1" parent="1" source="AO4uGi3OFT1quL-vgq5e-9" target="AO4uGi3OFT1quL-vgq5e-16">
          <mxGeometry relative="1" as="geometry" />
        </mxCell>
        <mxCell id="AO4uGi3OFT1quL-vgq5e-38" value="unload&lt;br&gt;(not implemented)" style="edgeLabel;html=1;align=center;verticalAlign=middle;resizable=0;points=[];" vertex="1" connectable="0" parent="AO4uGi3OFT1quL-vgq5e-37">
          <mxGeometry x="-0.0967" y="-1" relative="1" as="geometry">
            <mxPoint y="21" as="offset" />
          </mxGeometry>
        </mxCell>
        <mxCell id="AO4uGi3OFT1quL-vgq5e-43" style="edgeStyle=orthogonalEdgeStyle;rounded=0;orthogonalLoop=1;jettySize=auto;html=1;exitX=0.25;exitY=0;exitDx=0;exitDy=0;entryX=0.25;entryY=1;entryDx=0;entryDy=0;" edge="1" parent="1" source="AO4uGi3OFT1quL-vgq5e-9" target="AO4uGi3OFT1quL-vgq5e-6">
          <mxGeometry relative="1" as="geometry" />
        </mxCell>
        <mxCell id="AO4uGi3OFT1quL-vgq5e-44" value="toggle" style="edgeLabel;html=1;align=center;verticalAlign=middle;resizable=0;points=[];" vertex="1" connectable="0" parent="AO4uGi3OFT1quL-vgq5e-43">
          <mxGeometry x="0.1033" y="1" relative="1" as="geometry">
            <mxPoint as="offset" />
          </mxGeometry>
        </mxCell>
        <mxCell id="AO4uGi3OFT1quL-vgq5e-9" value="tree_mode: false&lt;br&gt;child: table view" style="rounded=1;whiteSpace=wrap;html=1;" vertex="1" parent="1">
          <mxGeometry x="320" y="360" width="120" height="40" as="geometry" />
        </mxCell>
        <mxCell id="AO4uGi3OFT1quL-vgq5e-35" style="edgeStyle=orthogonalEdgeStyle;rounded=0;orthogonalLoop=1;jettySize=auto;html=1;exitX=1;exitY=0.25;exitDx=0;exitDy=0;entryX=0;entryY=0.25;entryDx=0;entryDy=0;" edge="1" parent="1" source="AO4uGi3OFT1quL-vgq5e-16" target="AO4uGi3OFT1quL-vgq5e-9">
          <mxGeometry relative="1" as="geometry" />
        </mxCell>
        <mxCell id="AO4uGi3OFT1quL-vgq5e-36" value="load" style="edgeLabel;html=1;align=center;verticalAlign=middle;resizable=0;points=[];" vertex="1" connectable="0" parent="AO4uGi3OFT1quL-vgq5e-35">
          <mxGeometry x="-0.0033" y="1" relative="1" as="geometry">
            <mxPoint as="offset" />
          </mxGeometry>
        </mxCell>
        <mxCell id="AO4uGi3OFT1quL-vgq5e-45" style="edgeStyle=orthogonalEdgeStyle;rounded=0;orthogonalLoop=1;jettySize=auto;html=1;exitX=0.25;exitY=0;exitDx=0;exitDy=0;entryX=0.25;entryY=1;entryDx=0;entryDy=0;" edge="1" parent="1" source="AO4uGi3OFT1quL-vgq5e-16" target="AO4uGi3OFT1quL-vgq5e-1">
          <mxGeometry relative="1" as="geometry" />
        </mxCell>
        <mxCell id="AO4uGi3OFT1quL-vgq5e-46" value="toggle" style="edgeLabel;html=1;align=center;verticalAlign=middle;resizable=0;points=[];" vertex="1" connectable="0" parent="AO4uGi3OFT1quL-vgq5e-45">
          <mxGeometry x="0.07" y="-3" relative="1" as="geometry">
            <mxPoint as="offset" />
          </mxGeometry>
        </mxCell>
        <mxCell id="AO4uGi3OFT1quL-vgq5e-16" value="tree_mode: false&lt;br&gt;child: empty" style="rounded=1;whiteSpace=wrap;html=1;" vertex="1" parent="1">
          <mxGeometry x="80" y="360" width="120" height="40" as="geometry" />
        </mxCell>
        <mxCell id="AO4uGi3OFT1quL-vgq5e-27" value="&lt;h1&gt;actions&lt;/h1&gt;&lt;p&gt;toggle: toggle tree mode toggler&lt;br&gt;&lt;span style=&quot;background-color: initial;&quot;&gt;load: load database file&lt;br&gt;&lt;/span&gt;&lt;span style=&quot;background-color: initial;&quot;&gt;unload: unload database&lt;br&gt;&lt;/span&gt;&lt;span style=&quot;background-color: initial;&quot;&gt;update: uodate database&lt;/span&gt;&lt;/p&gt;" style="text;html=1;spacing=5;spacingTop=-20;whiteSpace=wrap;overflow=hidden;rounded=0;" vertex="1" parent="1">
          <mxGeometry x="40" y="40" width="280" height="120" as="geometry" />
        </mxCell>
        <mxCell id="AO4uGi3OFT1quL-vgq5e-33" style="edgeStyle=orthogonalEdgeStyle;rounded=0;orthogonalLoop=1;jettySize=auto;html=1;exitX=0.25;exitY=0;exitDx=0;exitDy=0;entryX=0.75;entryY=0;entryDx=0;entryDy=0;" edge="1" parent="1" source="AO4uGi3OFT1quL-vgq5e-6" target="AO4uGi3OFT1quL-vgq5e-6">
          <mxGeometry relative="1" as="geometry">
            <Array as="points">
              <mxPoint x="350" y="160" />
              <mxPoint x="410" y="160" />
            </Array>
          </mxGeometry>
        </mxCell>
        <mxCell id="AO4uGi3OFT1quL-vgq5e-34" value="update" style="edgeLabel;html=1;align=center;verticalAlign=middle;resizable=0;points=[];" vertex="1" connectable="0" parent="AO4uGi3OFT1quL-vgq5e-33">
          <mxGeometry x="-0.0367" relative="1" as="geometry">
            <mxPoint x="3" as="offset" />
          </mxGeometry>
        </mxCell>
        <mxCell id="AO4uGi3OFT1quL-vgq5e-39" style="edgeStyle=orthogonalEdgeStyle;rounded=0;orthogonalLoop=1;jettySize=auto;html=1;exitX=0.25;exitY=1;exitDx=0;exitDy=0;entryX=0.75;entryY=1;entryDx=0;entryDy=0;" edge="1" parent="1" source="AO4uGi3OFT1quL-vgq5e-9" target="AO4uGi3OFT1quL-vgq5e-9">
          <mxGeometry relative="1" as="geometry">
            <Array as="points">
              <mxPoint x="350" y="440" />
              <mxPoint x="410" y="440" />
            </Array>
          </mxGeometry>
        </mxCell>
        <mxCell id="AO4uGi3OFT1quL-vgq5e-40" value="update" style="edgeLabel;html=1;align=center;verticalAlign=middle;resizable=0;points=[];" vertex="1" connectable="0" parent="AO4uGi3OFT1quL-vgq5e-39">
          <mxGeometry x="-0.06" relative="1" as="geometry">
            <mxPoint x="4" as="offset" />
          </mxGeometry>
        </mxCell>
        <mxCell id="AO4uGi3OFT1quL-vgq5e-49" value="possible initial state 1" style="text;html=1;align=center;verticalAlign=middle;whiteSpace=wrap;rounded=0;" vertex="1" parent="1">
          <mxGeometry x="80" y="180" width="120" height="20" as="geometry" />
        </mxCell>
        <mxCell id="AO4uGi3OFT1quL-vgq5e-50" value="possible initial state 2" style="text;html=1;align=center;verticalAlign=middle;whiteSpace=wrap;rounded=0;" vertex="1" parent="1">
          <mxGeometry x="80" y="400" width="120" height="20" as="geometry" />
        </mxCell>
      </root>
    </mxGraphModel>
  </diagram>
</mxfile>
